<svg width="175" height="175" viewBox="0 0 175 175" fill="none" xmlns="http://www.w3.org/2000/svg">
<path d="M93.7998 15.6683C92.7372 15.5751 91.8009 15.2627 90.9909 14.7312C90.1925 14.1901 89.5866 13.4677 89.1734 12.5641C88.7716 11.6508 88.6216 10.6151 88.7232 9.45688C88.8248 8.29866 89.1524 7.31018 89.7061 6.49143C90.2713 5.66299 90.9937 5.05714 91.8732 4.67387C92.7643 4.2809 93.7412 4.13103 94.8037 4.22425C95.5263 4.28764 96.1617 4.42904 96.71 4.64846C97.2688 4.86881 97.8159 5.16308 98.3511 5.53126C98.5737 5.67928 98.6728 5.89142 98.6486 6.1677C98.6346 6.32708 98.5636 6.46541 98.4355 6.58266C98.3084 6.68929 98.1492 6.73422 97.9579 6.71744C97.8517 6.70812 97.7579 6.67848 97.6766 6.62852C97.2305 6.34311 96.7899 6.11707 96.3548 5.95041C95.9197 5.78374 95.41 5.67478 94.8255 5.62351C93.9117 5.54334 93.1139 5.66609 92.4322 5.99176C91.762 6.30773 91.2333 6.78067 90.8461 7.41058C90.4705 8.03079 90.2463 8.75531 90.1736 9.58412C90.1009 10.4129 90.195 11.1707 90.456 11.8575C90.7286 12.5346 91.1668 13.0923 91.7708 13.5308C92.3864 13.9596 93.1511 14.214 94.0649 14.2942C94.6493 14.3455 95.1702 14.3269 95.6277 14.2386C96.0852 14.1502 96.5584 14.0043 97.0474 13.801C97.1361 13.7659 97.2336 13.7531 97.3399 13.7624C97.5312 13.7792 97.6801 13.8511 97.7867 13.9783C97.8934 14.1054 97.9392 14.254 97.9243 14.424C97.9001 14.7003 97.7655 14.8919 97.5205 14.9989C96.9294 15.2683 96.3395 15.4628 95.7507 15.5825C95.1727 15.7031 94.5223 15.7317 93.7998 15.6683Z" fill="#493D34"/>
<path d="M101.395 16.5073C101.19 16.4506 101.038 16.3371 100.941 16.1666C100.855 15.9989 100.838 15.8173 100.892 15.622C100.915 15.5397 100.969 15.4439 101.054 15.3347L107.545 7.13164C107.678 6.96919 107.833 6.85123 108.008 6.77775C108.196 6.69683 108.398 6.6861 108.614 6.74558L108.768 6.78806C108.984 6.84753 109.147 6.95879 109.257 7.12185C109.38 7.27745 109.458 7.45914 109.489 7.6669L110.865 18.0365C110.883 18.174 110.88 18.2839 110.857 18.3662C110.803 18.5616 110.691 18.7077 110.521 18.8046C110.361 18.9043 110.178 18.9259 109.972 18.8692C109.828 18.8296 109.704 18.7568 109.601 18.6508C109.51 18.5374 109.452 18.4053 109.428 18.2546L109.088 15.5721L103.843 14.1277L102.177 16.258C102.079 16.3747 101.957 16.4572 101.811 16.5055C101.678 16.5463 101.539 16.5469 101.395 16.5073ZM104.735 12.9961L108.9 14.1431L108.198 8.5562L104.735 12.9961Z" fill="#493D34"/>
<path d="M117.396 22.0117C116.171 21.4325 115.133 20.6583 114.282 19.6892C114.189 19.5863 114.129 19.4636 114.102 19.321C114.079 19.1688 114.098 19.03 114.157 18.9047C114.235 18.7408 114.354 18.626 114.515 18.5605C114.69 18.4899 114.864 18.4956 115.037 18.5777C115.134 18.6233 115.216 18.6859 115.285 18.7655C115.985 19.5805 116.841 20.2274 117.854 20.7062C119.541 21.5044 120.647 21.349 121.172 20.2401C121.308 19.9508 121.312 19.6573 121.181 19.3596C121.06 19.0664 120.866 18.7915 120.598 18.5349C120.334 18.2687 119.945 17.9194 119.43 17.4869C118.744 16.915 118.204 16.4234 117.808 16.0121C117.417 15.5913 117.137 15.1107 116.968 14.5705C116.799 14.0302 116.862 13.4467 117.159 12.8199C117.419 12.2703 117.798 11.8421 118.297 11.5354C118.801 11.219 119.394 11.0629 120.077 11.0671C120.773 11.0662 121.517 11.2527 122.307 11.6267C123.368 12.1284 124.252 12.7413 124.96 13.4654C125.184 13.6895 125.228 13.9462 125.091 14.2355C125.018 14.3898 124.899 14.5045 124.734 14.5797C124.568 14.6549 124.399 14.6514 124.225 14.5693C124.168 14.542 124.1 14.4862 124.021 14.402C123.392 13.7859 122.678 13.2886 121.877 12.9101C121.116 12.5498 120.425 12.4003 119.806 12.4615C119.197 12.5273 118.769 12.8205 118.523 13.3412C118.359 13.6884 118.335 14.0253 118.452 14.3519C118.583 14.6735 118.788 14.9768 119.066 15.2618C119.358 15.5417 119.767 15.8882 120.291 16.3014C120.966 16.8449 121.492 17.3178 121.868 17.7199C122.254 18.1266 122.519 18.6003 122.665 19.141C122.82 19.6864 122.742 20.2869 122.432 20.9426C122.177 21.4825 121.792 21.8965 121.279 22.1845C120.769 22.4628 120.178 22.5903 119.505 22.5668C118.831 22.5433 118.128 22.3583 117.396 22.0117Z" fill="#493D34"/>
<path d="M125.013 25.8405C124.846 25.7257 124.745 25.572 124.709 25.3792C124.673 25.1864 124.713 25.0064 124.827 24.8394L130.325 16.8332C130.44 16.6661 130.593 16.5647 130.786 16.5288C130.985 16.4842 131.168 16.5193 131.335 16.634L136.624 20.2659C136.783 20.3746 136.875 20.5223 136.902 20.7091C136.944 20.8931 136.911 21.0642 136.802 21.2225C136.693 21.3808 136.546 21.4734 136.359 21.5005C136.181 21.5335 136.013 21.4957 135.854 21.387L131.172 18.1718L129.17 21.0867L133.378 23.9759C133.536 24.0846 133.629 24.2323 133.656 24.4191C133.698 24.6031 133.664 24.7742 133.556 24.9325C133.447 25.0908 133.299 25.1834 133.112 25.2105C132.934 25.2435 132.766 25.2057 132.608 25.097L128.401 22.2078L126.39 25.136L131.072 28.3512C131.231 28.4599 131.323 28.6076 131.35 28.7944C131.392 28.9784 131.359 29.1496 131.25 29.3078C131.141 29.4661 130.994 29.5588 130.807 29.5858C130.629 29.6188 130.461 29.581 130.302 29.4723L125.013 25.8405Z" fill="#493D34"/>
<path d="M140.222 38.7592C139.311 37.7565 138.647 36.6448 138.23 35.4241C138.184 35.2935 138.175 35.1572 138.205 35.0151C138.242 34.8659 138.312 34.7447 138.415 34.6514C138.549 34.5295 138.703 34.4689 138.876 34.4697C139.065 34.4712 139.224 34.543 139.353 34.6851C139.425 34.7641 139.477 34.8534 139.51 34.9532C139.846 35.9736 140.391 36.8984 141.144 37.7274C142.399 39.1091 143.481 39.3875 144.389 38.5627C144.625 38.3475 144.74 38.0774 144.733 37.7524C144.733 37.4352 144.659 37.107 144.509 36.7675C144.367 36.4209 144.14 35.9494 143.829 35.353C143.414 34.5629 143.102 33.9023 142.893 33.3713C142.693 32.833 142.617 32.282 142.667 31.718C142.717 31.1541 142.998 30.639 143.511 30.1728C143.961 29.764 144.476 29.513 145.054 29.42C145.64 29.3197 146.248 29.4018 146.877 29.6661C147.521 29.9311 148.137 30.3873 148.726 31.0347C149.515 31.9032 150.098 32.8071 150.476 33.7465C150.598 34.0393 150.54 34.2933 150.303 34.5084C150.177 34.6232 150.023 34.6838 149.841 34.6901C149.66 34.6965 149.505 34.6287 149.375 34.4866C149.332 34.4392 149.291 34.3617 149.251 34.254C148.904 33.4445 148.434 32.7121 147.838 32.0568C147.272 31.4331 146.691 31.0314 146.095 30.8518C145.507 30.6801 145 30.7879 144.573 31.1752C144.289 31.4334 144.139 31.7358 144.122 32.0823C144.12 32.4296 144.194 32.788 144.342 33.1576C144.506 33.5279 144.751 34.0041 145.078 34.5861C145.494 35.3461 145.8 35.9838 145.994 36.499C146.196 37.0221 146.26 37.5614 146.188 38.1167C146.124 38.6799 145.823 39.2054 145.286 39.6931C144.844 40.0948 144.33 40.3306 143.745 40.4007C143.168 40.4637 142.573 40.3558 141.96 40.0772C141.347 39.7986 140.767 39.3592 140.222 38.7592Z" fill="#493D34"/>
<path d="M146.792 46.9594C146.68 46.7905 146.644 46.6099 146.682 46.4177C146.721 46.2255 146.825 46.0734 146.994 45.9615L154.635 40.8951L152.831 38.1747C152.725 38.0147 152.69 37.846 152.726 37.6686C152.762 37.4912 152.86 37.3494 153.02 37.2433C153.18 37.1372 153.349 37.1021 153.526 37.1381C153.713 37.1681 153.859 37.2632 153.965 37.4232L158.368 44.064C158.474 44.224 158.505 44.3957 158.46 44.579C158.43 44.7653 158.335 44.9115 158.175 45.0176C158.015 45.1237 157.843 45.1544 157.66 45.1095C157.483 45.0736 157.341 44.9756 157.235 44.8156L155.44 42.1086L147.799 47.1749C147.63 47.2869 147.446 47.319 147.248 47.2712C147.056 47.2322 146.904 47.1283 146.792 46.9594Z" fill="#493D34"/>
<path d="M152.763 57.8419C152.46 57.148 152.314 56.4145 152.325 55.6413C152.336 54.868 152.549 54.1458 152.966 53.4746C153.392 52.7991 154.04 52.2711 154.91 51.8906L160.7 49.3577C160.886 49.2764 161.07 49.2715 161.253 49.343C161.445 49.4102 161.582 49.5366 161.663 49.7223C161.744 49.908 161.744 50.0943 161.663 50.2812C161.596 50.4736 161.47 50.6104 161.284 50.6916L155.45 53.2438C154.863 53.5003 154.423 53.8503 154.128 54.2937C153.837 54.7468 153.685 55.2382 153.672 55.7677C153.659 56.2973 153.762 56.8113 153.98 57.3097C154.198 57.808 154.506 58.2322 154.903 58.5822C155.301 58.9322 155.763 59.1494 156.289 59.2337C156.819 59.3277 157.377 59.2465 157.963 58.99L163.798 56.4378C163.983 56.3566 164.167 56.3517 164.35 56.4232C164.542 56.4904 164.679 56.6168 164.76 56.8025C164.842 56.9882 164.842 57.1745 164.76 57.3614C164.693 57.5537 164.567 57.6906 164.381 57.7718L158.591 60.3047C157.721 60.6852 156.894 60.8028 156.108 60.6574C155.332 60.5077 154.657 60.1745 154.082 59.6578C153.506 59.141 153.067 58.5357 152.763 57.8419Z" fill="#493D34"/>
<path d="M156.436 66.9801C156.392 66.7824 156.422 66.6007 156.526 66.4348C156.631 66.269 156.782 66.1638 156.98 66.1191L166.453 63.9778C166.651 63.9332 166.832 63.9632 166.998 64.0678C167.174 64.1702 167.285 64.3202 167.33 64.5179L168.039 67.6547C168.307 68.8408 168.268 69.9048 167.924 70.8466C167.591 71.7966 167.056 72.5737 166.318 73.178C165.58 73.7823 164.753 74.1879 163.837 74.3949C162.922 74.6018 162.001 74.5913 161.074 74.3632C160.148 74.1352 159.325 73.665 158.607 72.9526C157.901 72.2483 157.414 71.3031 157.145 70.117L156.436 66.9801ZM158.433 69.6455C158.626 70.4986 158.967 71.2089 159.456 71.7764C159.956 72.3415 160.552 72.7315 161.246 72.9465C161.95 73.1591 162.708 73.1737 163.52 72.9903C164.331 72.8069 165.004 72.4689 165.538 71.9764C166.082 71.4816 166.453 70.8728 166.651 70.1501C166.859 69.4251 166.866 68.636 166.673 67.7829L166.165 65.5356L157.925 67.3982L158.433 69.6455Z" fill="#493D34"/>
<path d="M158.762 80.1904C158.744 79.9885 158.798 79.8124 158.924 79.6622C159.05 79.512 159.214 79.428 159.416 79.4103L169.25 78.5488C169.452 78.5311 169.628 78.5853 169.779 78.7113C169.94 78.8364 170.029 78.9999 170.047 79.2018C170.064 79.4037 170.005 79.5803 169.868 79.7314C169.743 79.8923 169.579 79.9816 169.378 79.9993L159.543 80.8608C159.341 80.8784 159.165 80.819 159.014 80.6823C158.863 80.5563 158.779 80.3923 158.762 80.1904Z" fill="#493D34"/>
<path d="M159.253 86.2892C159.261 86.0867 159.336 85.9185 159.479 85.7848C159.623 85.6511 159.796 85.5878 159.998 85.5948L169.704 85.9345C169.907 85.9416 170.075 86.0169 170.209 86.1603C170.353 86.3041 170.422 86.4773 170.415 86.6798L170.19 93.0919C170.184 93.2838 170.109 93.4412 169.966 93.5643C169.833 93.6984 169.67 93.7621 169.479 93.7554C169.287 93.7487 169.129 93.6738 169.006 93.5307C168.883 93.3983 168.824 93.2362 168.831 93.0443L169.03 87.3678L165.496 87.2441L165.317 92.345C165.311 92.5369 165.236 92.6944 165.093 92.8174C164.96 92.9515 164.798 93.0152 164.606 93.0085C164.414 93.0018 164.256 92.9269 164.133 92.7839C164.01 92.6515 163.951 92.4893 163.958 92.2974L164.137 87.1966L160.587 87.0723L160.388 92.7489C160.382 92.9407 160.307 93.0982 160.164 93.2213C160.031 93.3554 159.868 93.4191 159.677 93.4124C159.485 93.4057 159.327 93.3308 159.204 93.1877C159.081 93.0553 159.022 92.8932 159.029 92.7013L159.253 86.2892Z" fill="#493D34"/>
<path d="M157.765 100.636C158.026 99.3066 158.522 98.1104 159.253 97.0473C159.33 96.932 159.434 96.8438 159.566 96.7827C159.708 96.7236 159.847 96.7075 159.983 96.7342C160.161 96.7692 160.301 96.8566 160.404 96.9964C160.516 97.1487 160.553 97.3191 160.516 97.5075C160.495 97.6121 160.455 97.7074 160.395 97.7934C159.776 98.672 159.359 99.6608 159.143 100.76C158.783 102.591 159.205 103.626 160.409 103.862C160.723 103.924 161.008 103.855 161.265 103.655C161.519 103.466 161.738 103.21 161.921 102.887C162.115 102.567 162.358 102.103 162.651 101.498C163.037 100.693 163.381 100.049 163.683 99.5646C163.995 99.0824 164.392 98.693 164.874 98.3964C165.357 98.0998 165.938 98.0184 166.618 98.152C167.215 98.2693 167.723 98.5322 168.143 98.9408C168.573 99.3514 168.87 99.888 169.033 100.551C169.205 101.226 169.206 101.992 169.038 102.851C168.811 104.002 168.434 105.009 167.906 105.873C167.743 106.146 167.505 106.251 167.191 106.189C167.024 106.156 166.883 106.069 166.77 105.927C166.657 105.785 166.618 105.62 166.655 105.432C166.668 105.369 166.705 105.289 166.768 105.193C167.211 104.432 167.517 103.617 167.688 102.749C167.851 101.922 167.826 101.216 167.615 100.631C167.402 100.056 167.013 99.7134 166.447 99.6023C166.071 99.5283 165.738 99.588 165.45 99.7814C165.17 99.9874 164.927 100.26 164.719 100.6C164.519 100.952 164.283 101.433 164.011 102.042C163.65 102.83 163.32 103.456 163.023 103.919C162.723 104.393 162.329 104.767 161.841 105.04C161.35 105.324 160.749 105.396 160.037 105.257C159.451 105.141 158.955 104.87 158.55 104.443C158.155 104.017 157.887 103.475 157.744 102.817C157.602 102.158 157.609 101.431 157.765 100.636Z" fill="#493D34"/>
<path d="M157.516 116.463C157.667 116.109 157.896 115.818 158.202 115.59C158.504 115.371 158.84 115.235 159.21 115.184C159.589 115.137 159.955 115.189 160.309 115.34C160.662 115.491 160.948 115.717 161.167 116.019C161.396 116.325 161.536 116.663 161.587 117.033C161.634 117.413 161.582 117.779 161.431 118.132C161.281 118.485 161.054 118.771 160.752 118.991C160.446 119.219 160.105 119.352 159.73 119.389C159.36 119.441 158.999 119.391 158.645 119.24C158.292 119.09 158.001 118.861 157.772 118.555C157.549 118.262 157.414 117.927 157.367 117.547C157.316 117.177 157.366 116.816 157.516 116.463Z" fill="#493D34"/>
<path d="M145.528 129.123C146.147 128.255 146.892 127.607 147.761 127.179C148.633 126.766 149.563 126.611 150.551 126.714C151.542 126.831 152.51 127.228 153.456 127.904C154.403 128.579 155.088 129.364 155.512 130.256C155.939 131.164 156.094 132.094 155.978 133.046C155.864 134.013 155.497 134.931 154.877 135.799C154.455 136.389 154.011 136.865 153.544 137.226C153.07 137.595 152.539 137.917 151.95 138.191C151.709 138.308 151.476 138.286 151.25 138.125C151.12 138.032 151.037 137.9 151.001 137.73C150.974 137.567 151.016 137.407 151.127 137.25C151.189 137.164 151.263 137.098 151.347 137.053C151.819 136.814 152.238 136.549 152.602 136.259C152.967 135.969 153.319 135.585 153.66 135.107C154.193 134.361 154.493 133.611 154.558 132.858C154.626 132.121 154.487 131.425 154.141 130.772C153.798 130.133 153.287 129.572 152.61 129.089C151.933 128.605 151.233 128.301 150.508 128.178C149.787 128.069 149.084 128.163 148.399 128.461C147.717 128.773 147.11 129.303 146.577 130.049C146.236 130.527 145.987 130.985 145.831 131.424C145.675 131.863 145.56 132.345 145.487 132.869C145.472 132.964 145.434 133.054 145.372 133.141C145.261 133.297 145.123 133.389 144.959 133.416C144.796 133.444 144.644 133.408 144.505 133.308C144.28 133.147 144.183 132.934 144.215 132.669C144.283 132.023 144.415 131.416 144.611 130.848C144.801 130.288 145.106 129.714 145.528 129.123Z" fill="#493D34"/>
<path d="M140.932 135.258C141.085 135.109 141.259 135.036 141.456 135.039C141.644 135.05 141.809 135.127 141.95 135.273C142.009 135.334 142.065 135.429 142.115 135.558L145.898 145.311C145.97 145.508 145.994 145.701 145.968 145.889C145.943 146.092 145.849 146.272 145.689 146.428L145.574 146.54C145.413 146.696 145.235 146.78 145.038 146.792C144.842 146.819 144.646 146.794 144.451 146.715L134.814 142.647C134.687 142.592 134.594 142.534 134.534 142.473C134.393 142.327 134.324 142.157 134.327 141.961C134.322 141.772 134.396 141.603 134.549 141.455C134.656 141.351 134.782 141.281 134.926 141.245C135.069 141.225 135.212 141.242 135.355 141.297L137.84 142.363L141.743 138.574L140.75 136.059C140.7 135.914 140.69 135.767 140.723 135.617C140.755 135.482 140.825 135.362 140.932 135.258ZM142.266 139.917L139.167 142.926L144.339 145.152L142.266 139.917Z" fill="#493D34"/>
<path d="M128.069 146.283C129.188 145.519 130.38 145.014 131.647 144.769C131.782 144.741 131.919 144.752 132.055 144.8C132.198 144.858 132.308 144.944 132.387 145.058C132.489 145.208 132.528 145.369 132.503 145.541C132.475 145.728 132.382 145.875 132.224 145.983C132.136 146.043 132.04 146.083 131.937 146.102C130.88 146.294 129.889 146.706 128.964 147.338C127.423 148.391 126.998 149.424 127.69 150.437C127.87 150.701 128.122 150.852 128.445 150.89C128.759 150.934 129.094 150.905 129.451 150.803C129.814 150.71 130.312 150.551 130.946 150.325C131.786 150.022 132.483 149.804 133.038 149.671C133.598 149.546 134.155 149.547 134.706 149.674C135.258 149.801 135.729 150.151 136.121 150.723C136.464 151.225 136.641 151.769 136.654 152.355C136.672 152.949 136.507 153.54 136.159 154.127C135.808 154.728 135.271 155.276 134.549 155.769C133.58 156.431 132.604 156.884 131.622 157.129C131.315 157.21 131.071 157.118 130.891 156.853C130.795 156.712 130.756 156.552 130.774 156.371C130.793 156.19 130.882 156.046 131.04 155.938C131.093 155.901 131.176 155.871 131.288 155.846C132.137 155.614 132.928 155.249 133.659 154.75C134.354 154.274 134.832 153.754 135.092 153.189C135.343 152.63 135.306 152.113 134.981 151.637C134.765 151.32 134.486 151.129 134.145 151.065C133.801 151.016 133.436 151.039 133.05 151.135C132.66 151.246 132.155 151.423 131.534 151.667C130.723 151.975 130.05 152.19 129.513 152.311C128.967 152.439 128.424 152.429 127.884 152.281C127.335 152.139 126.856 151.769 126.447 151.17C126.11 150.677 125.947 150.135 125.958 149.547C125.975 148.966 126.164 148.392 126.524 147.823C126.885 147.254 127.4 146.74 128.069 146.283Z" fill="#493D34"/>
<path d="M120.917 150.924C121.1 150.838 121.284 150.828 121.469 150.894C121.653 150.961 121.788 151.086 121.875 151.269L126.005 160.059C126.092 160.243 126.102 160.426 126.035 160.611C125.973 160.805 125.85 160.945 125.667 161.031L119.86 163.76C119.686 163.842 119.512 163.847 119.337 163.776C119.157 163.719 119.027 163.604 118.945 163.43C118.863 163.257 118.858 163.082 118.929 162.907C118.99 162.737 119.108 162.611 119.282 162.53L124.422 160.114L122.918 156.913L118.299 159.084C118.125 159.166 117.951 159.171 117.776 159.1C117.596 159.043 117.465 158.928 117.384 158.754C117.302 158.581 117.297 158.406 117.368 158.231C117.429 158.061 117.547 157.935 117.721 157.853L122.34 155.683L120.829 152.468L115.689 154.884C115.515 154.965 115.34 154.971 115.166 154.9C114.986 154.843 114.855 154.728 114.773 154.554C114.692 154.38 114.686 154.206 114.757 154.031C114.819 153.861 114.936 153.735 115.11 153.653L120.917 150.924Z" fill="#493D34"/>
<path d="M102.058 157.504C103.384 157.229 104.679 157.222 105.943 157.483C106.079 157.509 106.2 157.571 106.308 157.668C106.417 157.776 106.486 157.898 106.514 158.034C106.551 158.212 106.525 158.375 106.436 158.524C106.339 158.686 106.197 158.786 106.009 158.825C105.904 158.847 105.801 158.847 105.698 158.824C104.648 158.596 103.575 158.595 102.478 158.823C100.651 159.202 99.8615 159.992 100.111 161.193C100.176 161.506 100.35 161.743 100.634 161.902C100.907 162.063 101.228 162.165 101.596 162.208C101.967 162.262 102.488 162.307 103.16 162.341C104.051 162.385 104.779 162.452 105.342 162.542C105.908 162.643 106.421 162.858 106.881 163.187C107.342 163.516 107.642 164.02 107.783 164.699C107.907 165.295 107.862 165.865 107.648 166.41C107.437 166.966 107.057 167.448 106.51 167.856C105.955 168.276 105.249 168.575 104.392 168.753C103.243 168.991 102.168 169.035 101.167 168.883C100.853 168.839 100.664 168.661 100.599 168.347C100.564 168.18 100.59 168.017 100.677 167.857C100.763 167.697 100.901 167.598 101.089 167.559C101.151 167.546 101.239 167.55 101.352 167.57C102.226 167.683 103.096 167.649 103.962 167.469C104.788 167.298 105.429 167.002 105.886 166.58C106.333 166.16 106.497 165.669 106.38 165.105C106.302 164.729 106.118 164.446 105.828 164.255C105.53 164.077 105.184 163.959 104.79 163.899C104.388 163.851 103.853 163.821 103.186 163.807C102.32 163.78 101.615 163.719 101.073 163.624C100.52 163.532 100.023 163.314 99.5807 162.97C99.1285 162.628 98.8287 162.102 98.6813 161.392C98.5599 160.807 98.6176 160.245 98.8543 159.705C99.0931 159.176 99.4883 158.719 100.04 158.332C100.591 157.945 101.264 157.669 102.058 157.504Z" fill="#493D34"/>
<path d="M91.7081 158.99C91.9105 158.979 92.0846 159.04 92.2304 159.171C92.3762 159.302 92.4545 159.469 92.4652 159.671L92.9503 168.826L96.2098 168.653C96.4015 168.643 96.5647 168.699 96.6993 168.82C96.8338 168.941 96.9062 169.097 96.9164 169.289C96.9265 169.481 96.8711 169.644 96.7501 169.778C96.6296 169.924 96.4735 170.001 96.2817 170.011L88.3249 170.433C88.1332 170.443 87.9697 170.382 87.8346 170.251C87.6893 170.13 87.6116 169.974 87.6015 169.782C87.5913 169.591 87.6521 169.427 87.7838 169.292C87.9048 169.158 88.0612 169.085 88.2529 169.075L91.4964 168.903L91.0112 159.748C91.0005 159.546 91.066 159.371 91.2078 159.225C91.339 159.079 91.5057 159.001 91.7081 158.99Z" fill="#493D34"/>
<path d="M79.1768 158.61C79.9288 158.7 80.6352 158.946 81.296 159.348C81.9569 159.749 82.4709 160.3 82.8382 160.999C83.2042 161.709 83.3306 162.536 83.2175 163.478L82.4644 169.753C82.4403 169.954 82.3511 170.116 82.1969 170.237C82.0414 170.369 81.8631 170.422 81.6618 170.398C81.4606 170.374 81.3001 170.28 81.1802 170.115C81.0484 169.959 80.9946 169.781 81.0188 169.58L81.7776 163.257C81.8539 162.622 81.7757 162.064 81.5432 161.585C81.3 161.105 80.9535 160.725 80.5036 160.445C80.0537 160.166 79.5587 159.993 79.0186 159.929C78.4785 159.864 77.9568 159.914 77.4535 160.079C76.9502 160.244 76.5289 160.532 76.1896 160.943C75.8397 161.352 75.6266 161.874 75.5503 162.51L74.7915 168.832C74.7673 169.034 74.6781 169.195 74.5239 169.316C74.3685 169.448 74.1901 169.501 73.9889 169.477C73.7877 169.453 73.6271 169.359 73.5072 169.194C73.3755 169.038 73.3217 168.86 73.3458 168.659L74.099 162.384C74.2121 161.441 74.5305 160.668 75.0541 160.065C75.5764 159.472 76.2061 159.059 76.9433 158.825C77.6804 158.592 78.4249 158.52 79.1768 158.61Z" fill="#493D34"/>
<path d="M69.4531 157.149C69.6462 157.21 69.7877 157.328 69.8777 157.503C69.9676 157.677 69.9818 157.861 69.9202 158.054L66.9677 167.306C66.9061 167.499 66.7882 167.641 66.6139 167.731C66.4364 167.831 66.2511 167.85 66.0581 167.788L62.9943 166.811C61.8358 166.441 60.9379 165.869 60.3005 165.095C59.6497 164.327 59.2507 163.472 59.1037 162.529C58.9566 161.587 59.0258 160.668 59.3111 159.774C59.5965 158.88 60.0721 158.091 60.738 157.408C61.4038 156.724 62.226 156.253 63.2043 155.995C64.1692 155.743 65.2309 155.802 66.3893 156.171L69.4531 157.149ZM66.1436 157.52C65.3103 157.254 64.5251 157.189 63.7881 157.323C63.0478 157.467 62.4093 157.784 61.8724 158.274C61.3324 158.773 60.9359 159.419 60.683 160.212C60.43 161.004 60.3807 161.756 60.5348 162.465C60.6858 163.185 61.0228 163.813 61.5458 164.35C62.0656 164.896 62.7421 165.303 63.5754 165.569L65.7703 166.269L68.3385 158.221L66.1436 157.52Z" fill="#493D34"/>
<path d="M56.8603 152.448C57.0433 152.535 57.1675 152.671 57.233 152.856C57.2985 153.041 57.2876 153.225 57.2004 153.408L52.9519 162.319C52.8647 162.501 52.7287 162.626 52.5438 162.691C52.3544 162.766 52.1682 162.76 51.9852 162.673C51.8023 162.586 51.6804 162.445 51.6195 162.251C51.5444 162.061 51.5504 161.875 51.6376 161.692L55.8861 152.781C55.9733 152.598 56.1142 152.476 56.3087 152.415C56.4935 152.35 56.6774 152.361 56.8603 152.448Z" fill="#493D34"/>
<path d="M51.4575 149.834C51.6284 149.942 51.735 150.093 51.7774 150.284C51.8198 150.476 51.7865 150.657 51.6775 150.828L46.4563 159.017C46.3473 159.188 46.1971 159.294 46.0056 159.337C45.8084 159.388 45.6244 159.359 45.4535 159.25L40.0435 155.801C39.8817 155.698 39.784 155.553 39.7506 155.368C39.7025 155.185 39.7301 155.013 39.8333 154.851C39.9365 154.689 40.081 154.591 40.2667 154.558C40.4435 154.519 40.6128 154.551 40.7747 154.654L45.564 157.708L47.465 154.726L43.1614 151.982C42.9995 151.879 42.9018 151.735 42.8685 151.549C42.8203 151.366 42.8479 151.194 42.9511 151.032C43.0543 150.871 43.1988 150.773 43.3846 150.739C43.5613 150.7 43.7306 150.732 43.8925 150.836L48.1962 153.58L50.1058 150.585L45.3164 147.531C45.1545 147.428 45.0569 147.283 45.0235 147.098C44.9754 146.915 45.003 146.743 45.1062 146.581C45.2094 146.419 45.3539 146.321 45.5396 146.288C45.7164 146.249 45.8857 146.281 46.0476 146.384L51.4575 149.834Z" fill="#493D34"/>
<path d="M39.8359 141.247C40.8482 142.147 41.6266 143.182 42.1711 144.351C42.2313 144.476 42.2543 144.611 42.2401 144.755C42.2188 144.908 42.1621 145.036 42.07 145.139C41.9495 145.275 41.8029 145.351 41.6301 145.369C41.4423 145.387 41.2767 145.333 41.1332 145.205C41.0535 145.135 40.992 145.051 40.9486 144.956C40.5059 143.977 39.8661 143.115 39.0291 142.371C37.6342 141.13 36.5292 140.968 35.7141 141.885C35.5014 142.124 35.4159 142.405 35.4574 142.727C35.491 143.043 35.6003 143.361 35.7854 143.683C35.9634 144.012 36.2388 144.457 36.6116 145.017C37.1084 145.759 37.4887 146.382 37.7525 146.888C38.0093 147.402 38.143 147.942 38.1535 148.508C38.164 149.074 37.9389 149.616 37.4781 150.134C37.0741 150.588 36.5895 150.893 36.0243 151.047C35.452 151.209 34.839 151.192 34.1853 150.996C33.5166 150.801 32.8554 150.413 32.2018 149.831C31.325 149.052 30.6489 148.215 30.1734 147.321C30.0211 147.043 30.0513 146.784 30.2639 146.545C30.3773 146.417 30.5239 146.341 30.7038 146.315C30.8836 146.29 31.0453 146.341 31.1887 146.468C31.2366 146.511 31.2861 146.583 31.3375 146.686C31.7678 147.454 32.3138 148.132 32.9754 148.721C33.6051 149.281 34.2255 149.618 34.8367 149.734C35.4399 149.842 35.9329 149.681 36.3157 149.25C36.5708 148.963 36.6883 148.647 36.668 148.3C36.6326 147.955 36.5215 147.606 36.3347 147.255C36.1328 146.904 35.8384 146.456 35.4514 145.912C34.9564 145.201 34.5849 144.599 34.337 144.108C34.0811 143.609 33.9594 143.08 33.972 142.52C33.9765 141.953 34.2198 141.398 34.7018 140.856C35.0987 140.41 35.5842 140.121 36.1583 139.989C36.7252 139.865 37.3285 139.909 37.968 140.121C38.6075 140.333 39.2301 140.708 39.8359 141.247Z" fill="#493D34"/>
<path d="M26.3261 133.018C26.5547 133.326 26.6903 133.671 26.7328 134.051C26.769 134.422 26.7157 134.78 26.5728 135.125C26.4214 135.476 26.1914 135.766 25.8828 135.994C25.5742 136.223 25.2343 136.355 24.8628 136.392C24.4828 136.434 24.1205 136.384 23.7757 136.241C23.4246 136.09 23.1348 135.86 22.9062 135.551C22.6776 135.243 22.5453 134.903 22.5091 134.531C22.4665 134.151 22.5241 133.79 22.6819 133.447C22.8248 133.103 23.0505 132.816 23.3591 132.587C23.6676 132.359 24.0119 132.223 24.3919 132.181C24.757 132.136 25.1151 132.189 25.4662 132.341C25.8109 132.484 26.0976 132.709 26.3261 133.018Z" fill="#493D34"/>
<path d="M21.4626 116.281C21.8983 117.255 22.0811 118.225 22.011 119.191C21.9268 120.152 21.5906 121.033 21.0024 121.833C20.4001 122.629 19.5684 123.264 18.5071 123.739C17.4459 124.214 16.4229 124.409 15.4382 124.324C14.4394 124.233 13.5586 123.897 12.7957 123.315C12.0188 122.728 11.4124 121.947 10.9767 120.974C10.6804 120.312 10.4947 119.688 10.4196 119.102C10.3401 118.507 10.3309 117.886 10.392 117.239C10.413 116.972 10.5501 116.782 10.8032 116.669C10.9493 116.604 11.1047 116.598 11.2694 116.653C11.4245 116.712 11.5412 116.83 11.6196 117.005C11.6632 117.102 11.6829 117.199 11.6788 117.294C11.6466 117.823 11.6636 118.317 11.7298 118.779C11.7959 119.24 11.9488 119.738 12.1885 120.274C12.5632 121.111 13.0587 121.748 13.675 122.185C14.2772 122.617 14.9476 122.849 15.6863 122.88C16.4109 122.907 17.153 122.75 17.9124 122.41C18.6718 122.07 19.288 121.619 19.7609 121.057C20.2197 120.489 20.4937 119.835 20.5828 119.094C20.6578 118.347 20.5079 117.556 20.1332 116.718C19.8935 116.183 19.6238 115.737 19.324 115.38C19.0241 115.023 18.6664 114.681 18.2508 114.353C18.177 114.292 18.1183 114.214 18.0747 114.116C17.9963 113.941 17.9866 113.776 18.0458 113.621C18.105 113.466 18.2125 113.353 18.3682 113.284C18.6214 113.17 18.8543 113.195 19.067 113.357C19.59 113.742 20.047 114.163 20.4381 114.619C20.8248 115.065 21.1663 115.619 21.4626 116.281Z" fill="#493D34"/>
<path d="M18.4972 109.222C18.5476 109.429 18.5219 109.617 18.4199 109.784C18.3154 109.941 18.1647 110.044 17.9678 110.092C17.8849 110.112 17.7749 110.111 17.6379 110.09L7.31456 108.401C7.10783 108.364 6.92982 108.286 6.78052 108.169C6.61833 108.044 6.51077 107.872 6.45783 107.655L6.42002 107.499C6.36708 107.282 6.38515 107.085 6.47424 106.91C6.55043 106.727 6.67173 106.571 6.83812 106.443L15.2331 100.202C15.3448 100.12 15.4422 100.069 15.5251 100.048C15.722 100.001 15.9042 100.028 16.0717 100.13C16.2367 100.221 16.3444 100.371 16.3949 100.578C16.4301 100.723 16.4266 100.867 16.3843 101.009C16.3292 101.143 16.2418 101.257 16.1221 101.352L13.9426 102.953L15.2282 108.239L17.8993 108.659C18.0492 108.689 18.1807 108.756 18.2939 108.86C18.3942 108.956 18.4619 109.077 18.4972 109.222ZM13.8055 108.008L12.7846 103.811L8.24235 107.138L13.8055 108.008Z" fill="#493D34"/>
<path d="M15.5326 92.5781C15.6229 93.9297 15.4522 95.2133 15.0203 96.4288C14.9756 96.5601 14.8976 96.6722 14.7862 96.7652C14.6642 96.8589 14.534 96.9103 14.3956 96.9196C14.2147 96.9317 14.0565 96.8835 13.9209 96.7749C13.774 96.6565 13.6942 96.5014 13.6814 96.3099C13.6743 96.2034 13.6888 96.1009 13.7249 96.0023C14.0959 94.994 14.244 93.9311 14.1693 92.8135C14.0448 90.951 13.3706 90.0607 12.1466 90.1425C11.8273 90.1638 11.5694 90.304 11.3729 90.563C11.1757 90.8114 11.0303 91.1151 10.9367 91.4742C10.8325 91.8339 10.7169 92.3441 10.59 93.0047C10.4242 93.8817 10.2579 94.593 10.0913 95.1387C9.91397 95.6851 9.6306 96.1637 9.24113 96.5746C8.85167 96.9855 8.31105 97.2141 7.61926 97.2603C7.01261 97.3009 6.45383 97.1778 5.94291 96.8913C5.42135 96.6054 4.99626 96.1635 4.66764 95.5654C4.32767 94.9574 4.12851 94.217 4.07018 93.3443C3.99192 92.1736 4.09674 91.1029 4.38464 90.1322C4.47115 89.827 4.67405 89.6638 4.99334 89.6425C5.16362 89.6311 5.32186 89.6793 5.46804 89.7871C5.61423 89.895 5.69372 90.0447 5.70653 90.2362C5.71079 90.3001 5.6952 90.3867 5.65974 90.4959C5.42787 91.3453 5.34146 92.2116 5.40051 93.095C5.45671 93.9358 5.66224 94.6116 6.0171 95.1224C6.37125 95.6226 6.83568 95.8534 7.4104 95.815C7.79354 95.7894 8.09933 95.646 8.32775 95.3849C8.54482 95.1138 8.71009 94.7874 8.82355 94.4056C8.92565 94.0139 9.0295 93.4885 9.13511 92.8293C9.28112 91.975 9.43816 91.2857 9.60623 90.7613C9.77359 90.2263 10.058 89.7636 10.4596 89.3733C10.8604 88.9724 11.4226 88.7477 12.1464 88.6993C12.7424 88.6595 13.2912 88.7938 13.7929 89.1024C14.284 89.4117 14.6832 89.866 14.9905 90.4655C15.2978 91.0651 15.4785 91.7692 15.5326 92.5781Z" fill="#493D34"/>
<path d="M15.1666 83.9149C15.1478 84.1167 15.0629 84.2802 14.912 84.4054C14.7611 84.5307 14.5847 84.5839 14.3829 84.5651L4.71276 83.6643C4.51096 83.6456 4.34746 83.5607 4.22225 83.4098C4.08642 83.2578 4.02791 83.081 4.0467 82.8792L4.64174 76.4908C4.65955 76.2997 4.74342 76.1468 4.89336 76.0322C5.03367 75.906 5.19941 75.8518 5.39058 75.8696C5.58175 75.8874 5.73463 75.9713 5.84922 76.1212C5.9648 76.2606 6.01368 76.4258 5.99588 76.617L5.4691 82.2725L8.98986 82.6004L9.46322 77.5184C9.48102 77.3273 9.5649 77.1744 9.71484 77.0598C9.85515 76.9336 10.0209 76.8794 10.2121 76.8972C10.4032 76.915 10.5561 76.9989 10.6707 77.1488C10.7863 77.2881 10.8352 77.4534 10.8174 77.6446L10.344 82.7266L13.8807 83.056L14.4075 77.4005C14.4253 77.2093 14.5091 77.0564 14.6591 76.9418C14.7994 76.8156 14.9651 76.7614 15.1563 76.7792C15.3475 76.797 15.5004 76.8809 15.6149 77.0309C15.7305 77.1702 15.7794 77.3354 15.7616 77.5266L15.1666 83.9149Z" fill="#493D34"/>
<path d="M19.044 64.365C18.6096 65.6482 17.9602 66.7685 17.0956 67.7258C17.0041 67.8299 16.889 67.9036 16.7505 67.9468C16.6019 67.9866 16.462 67.9843 16.3306 67.9398C16.1589 67.8817 16.0312 67.7765 15.9475 67.6244C15.8572 67.4587 15.8429 67.2849 15.9044 67.103C15.9386 67.002 15.9913 66.9128 16.0625 66.8356C16.7914 66.0463 17.3353 65.1212 17.6944 64.0603C18.2929 62.2922 18.0112 61.2115 16.8493 60.8182C16.5462 60.7156 16.2542 60.7463 15.9735 60.9103C15.6962 61.0641 15.4456 61.289 15.2216 61.5848C14.9875 61.8772 14.6853 62.3041 14.315 62.8657C13.8258 63.6123 13.3998 64.2057 13.0368 64.6459C12.6637 65.0827 12.2186 65.4163 11.7015 65.6466C11.1843 65.877 10.5974 65.881 9.94064 65.6587C9.36474 65.4638 8.8957 65.1361 8.53353 64.6757C8.16126 64.2118 7.9379 63.6408 7.86345 62.9624C7.78233 62.2705 7.88197 61.5104 8.1624 60.6819C8.53859 59.5705 9.04557 58.6216 9.68336 57.8352C9.88015 57.5865 10.1301 57.5135 10.4332 57.6161C10.5949 57.6708 10.7226 57.7759 10.8163 57.9315C10.91 58.0871 10.9261 58.2559 10.8645 58.4377C10.844 58.4984 10.7965 58.5723 10.7218 58.6597C10.1823 59.3554 9.7706 60.1226 9.48675 60.9612C9.21658 61.7594 9.14756 62.4624 9.27967 63.0702C9.41521 63.6678 9.75577 64.059 10.3014 64.2437C10.6651 64.3668 11.0025 64.3515 11.3135 64.1977C11.6179 64.0305 11.8956 63.7923 12.1466 63.4831C12.391 63.1604 12.6882 62.7149 13.0382 62.1464C13.5004 61.4132 13.9095 60.8366 14.2656 60.4166C14.6252 59.9865 15.0651 59.6681 15.5856 59.4614C16.1094 59.2446 16.7148 59.2524 17.4019 59.485C17.9677 59.6765 18.4232 60.0108 18.7684 60.488C19.1035 60.9618 19.2982 61.5345 19.3525 62.206C19.4067 62.8775 19.3039 63.5972 19.044 64.365Z" fill="#493D34"/>
<path d="M23.0239 54.6569C22.9303 54.8367 22.7901 54.9561 22.6031 55.0152C22.4161 55.0742 22.2327 55.0569 22.0529 54.9634L13.9193 50.7329L12.4131 53.6286C12.3245 53.799 12.1939 53.9114 12.0213 53.9659C11.8487 54.0204 11.6772 54.0033 11.5069 53.9147C11.3365 53.8261 11.2241 53.6955 11.1696 53.5229C11.1057 53.3454 11.118 53.1714 11.2066 53.0011L14.8834 45.9321C14.972 45.7618 15.1073 45.6518 15.2894 45.6023C15.4669 45.5383 15.6409 45.5506 15.8112 45.6392C15.9815 45.7278 16.0915 45.8632 16.1411 46.0452C16.1956 46.2179 16.1785 46.3893 16.0899 46.5597L14.5911 49.4412L22.7247 53.6717C22.9045 53.7652 23.0215 53.9102 23.0756 54.1067C23.1346 54.2937 23.1174 54.4771 23.0239 54.6569Z" fill="#493D34"/>
<path d="M29.6444 44.1717C29.1849 44.7736 28.6143 45.2573 27.9327 45.6226C27.2512 45.988 26.5159 46.1513 25.7268 46.1125C24.9293 46.0673 24.1533 45.7566 23.3987 45.1805L18.3755 41.3453C18.2144 41.2223 18.1208 41.0636 18.0947 40.8693C18.0602 40.6684 18.1044 40.4875 18.2274 40.3264C18.3504 40.1653 18.5133 40.0749 18.7162 40.0554C18.917 40.0208 19.098 40.065 19.259 40.188L24.3205 44.0524C24.8291 44.4408 25.3489 44.6564 25.8798 44.6994C26.4171 44.7339 26.9204 44.6283 27.3897 44.3827C27.8591 44.1372 28.2588 43.7982 28.5889 43.3658C28.919 42.9334 29.1407 42.4585 29.254 41.941C29.3672 41.4236 29.3332 40.9145 29.1519 40.4137C28.977 39.9045 28.6353 39.4556 28.1266 39.0673L23.0652 35.2029C22.9041 35.0799 22.8105 34.9212 22.7844 34.7269C22.7499 34.526 22.7941 34.3451 22.9171 34.184C23.0401 34.0229 23.203 33.9326 23.4058 33.913C23.6067 33.8784 23.7876 33.9226 23.9487 34.0456L28.972 37.8809C29.7265 38.457 30.2307 39.1237 30.4845 39.8811C30.7298 40.6321 30.766 41.3844 30.5931 42.1381C30.4202 42.8919 30.104 43.5697 29.6444 44.1717Z" fill="#493D34"/>
<path d="M35.8479 36.5263C35.697 36.6616 35.5237 36.724 35.3279 36.7133C35.1321 36.7027 34.9665 36.6219 34.8312 36.4711L28.3465 29.2411C28.2112 29.0903 28.1489 28.9169 28.1595 28.7211C28.163 28.5173 28.2402 28.3478 28.3911 28.2125L30.7852 26.0652C31.6904 25.2533 32.6383 24.7685 33.6288 24.6108C34.6202 24.4381 35.5596 24.5269 36.4469 24.8772C37.3343 25.2276 38.0914 25.7522 38.7182 26.4509C39.3449 27.1497 39.7843 27.9592 40.0365 28.8793C40.2886 29.7994 40.2787 30.7469 40.0067 31.7216C39.7355 32.6813 39.1472 33.5671 38.242 34.379L35.8479 36.5263ZM37.2029 33.4841C37.8541 32.9001 38.3083 32.2563 38.5656 31.5527C38.8157 30.8411 38.8657 30.13 38.7155 29.4194C38.5581 28.7008 38.2017 28.0318 37.6462 27.4124C37.0906 26.7931 36.4678 26.3702 35.7776 26.1439C35.0803 25.9096 34.368 25.8822 33.6406 26.0617C32.9062 26.2333 32.2134 26.6111 31.5622 27.1951L29.8471 28.7335L35.4878 35.0225L37.2029 33.4841Z" fill="#493D34"/>
<path d="M46.2944 28.0256C46.1267 28.1394 45.9465 28.1779 45.7539 28.141C45.5613 28.1041 45.4081 28.0018 45.2943 27.8341L39.7511 19.6653C39.6373 19.4976 39.5988 19.3175 39.6357 19.1249C39.6666 18.9234 39.7659 18.7658 39.9336 18.652C40.1013 18.5382 40.2844 18.5042 40.483 18.5499C40.6844 18.5808 40.8421 18.6801 40.9559 18.8478L46.4991 27.0166C46.6129 27.1843 46.6469 27.3674 46.6012 27.566C46.5644 27.7586 46.4621 27.9118 46.2944 28.0256Z" fill="#493D34"/>
<path d="M51.2685 24.6895C51.0881 24.782 50.9046 24.7982 50.718 24.738C50.5313 24.6779 50.3917 24.5577 50.2993 24.3774L45.8677 15.7353C45.7752 15.555 45.7591 15.3715 45.8192 15.1848C45.8744 14.9887 45.9922 14.8444 46.1726 14.7519L51.8817 11.8243C52.0525 11.7367 52.2266 11.7254 52.4037 11.7904C52.5855 11.841 52.7202 11.9517 52.8078 12.1226C52.8954 12.2934 52.9068 12.4674 52.8418 12.6446C52.7863 12.8169 52.6731 12.9469 52.5023 13.0345L47.448 15.6262L49.0615 18.7727L53.6032 16.4437C53.774 16.3561 53.948 16.3448 54.1252 16.4098C54.307 16.4604 54.4417 16.5712 54.5293 16.742C54.6169 16.9129 54.6282 17.0869 54.5632 17.264C54.5078 17.4363 54.3946 17.5663 54.2237 17.6539L49.6821 19.9828L51.3028 23.1435L56.357 20.5517C56.5279 20.4641 56.7019 20.4528 56.8791 20.5178C57.0609 20.5684 57.1956 20.6792 57.2832 20.85C57.3708 21.0209 57.3821 21.1949 57.3171 21.372C57.2616 21.5443 57.1485 21.6743 56.9776 21.7619L51.2685 24.6895Z" fill="#493D34"/>
<path d="M64.5384 19.0054C63.2497 19.4228 61.9632 19.5703 60.679 19.448C60.5408 19.4367 60.4131 19.3884 60.2957 19.303C60.1751 19.2076 60.0935 19.0939 60.0507 18.9619C59.9949 18.7894 60.003 18.6242 60.0752 18.4663C60.1543 18.2949 60.2851 18.1797 60.4678 18.1205C60.5693 18.0877 60.6722 18.0767 60.7767 18.0877C61.8451 18.2015 62.912 18.0858 63.9775 17.7407C65.7534 17.1656 66.4523 16.2946 66.0744 15.1276C65.9758 14.8231 65.777 14.6072 65.4778 14.4799C65.1889 14.3492 64.8589 14.2823 64.4878 14.2791C64.1135 14.2658 63.5906 14.2782 62.919 14.3163C62.028 14.3694 61.2976 14.3817 60.7277 14.3532C60.1546 14.3145 59.6213 14.1565 59.1278 13.879C58.6344 13.6016 58.2808 13.133 58.0672 12.4734C57.8799 11.895 57.8628 11.3231 58.0161 10.7577C58.1661 10.1822 58.491 9.66211 58.9908 9.19751C59.4975 8.71948 60.167 8.34573 60.9991 8.07625C62.1153 7.71475 63.1793 7.55521 64.1909 7.5976C64.5079 7.60706 64.7157 7.76401 64.8143 8.06844C64.8668 8.23081 64.8587 8.39603 64.7898 8.5641C64.7209 8.73217 64.5951 8.84578 64.4124 8.90493C64.3515 8.92465 64.2638 8.93065 64.1492 8.92292C63.2689 8.90526 62.4076 9.03281 61.5654 9.30558C60.7637 9.5652 60.1585 9.92938 59.7497 10.3981C59.351 10.8636 59.2404 11.3703 59.4179 11.9183C59.5362 12.2836 59.7498 12.5452 60.0588 12.703C60.3746 12.8474 60.7315 12.928 61.1294 12.9449C61.5342 12.9484 62.0691 12.9209 62.7341 12.8625C63.5982 12.7957 64.305 12.7798 64.8546 12.8149C65.4142 12.8467 65.9323 13.0097 66.4088 13.3038C66.8954 13.5947 67.2505 14.0852 67.4739 14.7753C67.658 15.3435 67.6616 15.9086 67.4847 16.4704C67.3046 17.0221 66.9613 17.52 66.4549 17.9643C65.9485 18.4086 65.3097 18.7557 64.5384 19.0054Z" fill="#493D34"/>
<path d="M78.4685 11.5376C78.0866 11.5778 77.7212 11.5198 77.3722 11.3635C77.0338 11.206 76.7524 10.9783 76.528 10.6801C76.3024 10.3714 76.1695 10.0261 76.1293 9.6442C76.0891 9.26232 76.1477 8.9022 76.3051 8.56385C76.4614 8.21489 76.6886 7.92818 76.9867 7.70372C77.2955 7.47814 77.6408 7.34524 78.0227 7.30502C78.4046 7.26479 78.7647 7.3234 79.103 7.48082C79.452 7.63713 79.734 7.87021 79.9489 8.18007C80.1734 8.4782 80.3057 8.8182 80.346 9.20009C80.3862 9.58198 80.3281 9.9474 80.1718 10.2964C80.025 10.6336 79.7972 10.915 79.4885 11.1406C79.1904 11.365 78.8504 11.4974 78.4685 11.5376Z" fill="#493D34"/>
<path d="M113.528 86.9225L85.5 121.043L57.4722 86.9225L60.1528 83.6591L83.5938 112.196V47H87.4062V112.196L110.847 83.6591L113.528 86.9225Z" fill="black" fill-opacity="0.54"/>
</svg>
