<svg width="722" height="464" viewBox="0 0 722 464" fill="none" xmlns="http://www.w3.org/2000/svg">
<path d="M679.134 347.159C673.387 363.007 659.077 374.969 637.983 382.986C616.892 391.002 589.08 395.048 556.463 395.098C491.232 395.197 406.891 379.313 318.913 347.408C230.935 315.502 156.019 273.63 106.015 231.74C81.0117 210.794 62.2589 189.861 51.2091 170.189C40.1583 150.514 36.8424 132.16 42.5897 116.312C48.337 100.465 62.6471 88.5027 83.7405 80.4856C104.832 72.4691 132.643 68.4234 165.261 68.3738C230.492 68.2748 314.833 84.1581 402.811 116.064C490.789 147.97 565.705 189.842 615.709 231.732C640.712 252.678 659.465 273.61 670.515 293.283C681.565 312.957 684.881 331.311 679.134 347.159Z" stroke="#493D34"/>
<path d="M403.181 73.2881L405.865 110.668L436.285 93.8465L408.108 114.941L436.65 135.54L405.865 119.294L403.181 182.797L401.303 119.334L370.807 136.116L398.984 115.021L370.442 94.4227L401.227 110.668L403.181 73.2881Z" fill="#5A4D41"/>
</svg>
