<svg width="486" height="475" viewBox="0 0 486 475" fill="none" xmlns="http://www.w3.org/2000/svg">
<path d="M243 0L247.858 146.907L268.4 1.30106L257.52 147.9L293.523 5.18994L267.023 149.874L318.091 11.6241L276.263 152.808L341.837 20.533L285.138 156.671L364.5 31.819L293.552 161.418L385.832 45.3585L301.412 167L405.599 61.0031L308.632 173.353L423.584 78.5815L315.133 180.41L439.591 97.901L320.844 188.092L453.444 118.75L325.701 196.315L464.992 140.9L329.653 204.99L474.107 164.108L332.655 214.021L480.69 188.121L334.675 223.309L484.669 212.674L335.691 232.752L486 237.5L335.691 242.248L484.669 262.326L334.675 251.691L480.69 286.879L332.655 260.979L474.107 310.892L329.653 270.01L464.992 334.1L325.701 278.685L453.444 356.25L320.844 286.908L439.591 377.099L315.133 294.59L423.584 396.419L308.632 301.647L405.599 413.997L301.412 308L385.832 429.642L293.552 313.582L364.5 443.181L285.138 318.329L341.837 454.467L276.263 322.192L318.091 463.376L267.023 325.126L293.523 469.81L257.52 327.1L268.4 473.699L247.858 328.093L243 475L238.142 328.093L217.6 473.699L228.48 327.1L192.477 469.81L218.977 325.126L167.909 463.376L209.737 322.192L144.163 454.467L200.862 318.329L121.5 443.181L192.448 313.582L100.168 429.642L184.588 308L80.4013 413.997L177.368 301.647L62.4158 396.419L170.867 294.59L46.4089 377.099L165.156 286.908L32.5558 356.25L160.299 278.685L21.0085 334.1L156.347 270.01L11.8933 310.892L153.345 260.979L5.31013 286.879L151.325 251.691L1.33118 262.326L150.309 242.248L0 237.5L150.309 232.752L1.33118 212.674L151.325 223.309L5.31013 188.121L153.345 214.021L11.8933 164.108L156.347 204.99L21.0085 140.9L160.299 196.315L32.5558 118.75L165.156 188.092L46.4089 97.901L170.867 180.41L62.4158 78.5815L177.368 173.353L80.4013 61.0031L184.588 167L100.168 45.3585L192.448 161.418L121.5 31.819L200.862 156.671L144.163 20.533L209.737 152.808L167.909 11.6241L218.977 149.874L192.477 5.18994L228.48 147.9L217.6 1.30106L238.142 146.907L243 0Z" fill="black" fill-opacity="0.04"/>
</svg>
